<svg width="48px" height="48px" viewBox="0 0 48 48" version="1.1" xmlns="http://www.w3.org/2000/svg" xmlns:xlink="http://www.w3.org/1999/xlink">
    <g stroke-width="1" fill-rule="evenodd">
        <path d="M24,0 C37.254834,0 48,10.745166 48,24 C48,37.254834 37.254834,48 24,48 C10.745166,48 0,37.254834 0,24 C0,10.745166 10.745166,0 24,0 Z M15.2232234,26.0009121 L4.09883464,26.0008474 C4.5680718,30.7249236 6.68111322,34.9653845 9.85786438,38.1421356 C13.4771525,41.7614237 18.4771525,44 24,44 C29.5228475,44 34.5228475,41.7614237 38.1421356,38.1421356 C41.3188868,34.9653845 43.4319282,30.7249236 43.9011654,26.0008474 L32.7767766,26.0009121 C31.8669815,30.0084313 28.2828499,33 24,33 C19.7171501,33 16.1330185,30.0084313 15.2232234,26.0009121 Z M24,19 C21.2385763,19 19,21.2385763 19,24 C19,26.7614237 21.2385763,29 24,29 C26.7614237,29 29,26.7614237 29,24 C29,21.2385763 26.7614237,19 24,19 Z M24,4 C18.4771525,4 13.4771525,6.23857625 9.85786438,9.85786438 C6.68088881,13.0348399 4.56777327,17.2756756 4.09873522,22.0001537 L15.2229972,22.0000846 C16.1324243,17.9920647 19.7167951,15 24,15 C28.2832049,15 31.8675757,17.9920647 32.7770028,22.0000846 L43.9012648,22.0001537 C43.4322267,17.2756756 41.3191112,13.0348399 38.1421356,9.85786438 C34.5228475,6.23857625 29.5228475,4 24,4 Z" fill="#000000"></path>
    </g>
</svg>