<?xml version="1.0" encoding="utf-8"?>
<!-- Generator: Adobe Illustrator 22.0.0, SVG Export Plug-In . SVG Version: 6.00 Build 0)  -->
<svg version="1.1" id="Layer_1" xmlns="http://www.w3.org/2000/svg" xmlns:xlink="http://www.w3.org/1999/xlink" x="0px" y="0px"
	 viewBox="0 0 596.7 202" style="enable-background:new 0 0 596.7 202;" xml:space="preserve">
<style type="text/css">
	.st0{font-family:'PokemonHollowNormal';}
	.st1{font-size:119.6695px;}
	.st2{fill:none;stroke:#3B5CA8;stroke-width:4;stroke-miterlimit:10;}
	.st3{fill:#FFCB05;}
	.st4{font-family:'PokemonSolidNormal';}
	.st5{fill:#3B5CA8;}
	.st6{font-size:120px;}
</style>
<title>Asset 3</title>
<g id="Layer_2_1_">
	<g id="Layer_1-2">
		<text transform="matrix(1.1933 -0.3309 0.2707 0.9627 40.9505 196.6106)" class="st0 st1">P</text>
		<text transform="matrix(1.1933 -0.3309 0.2707 0.9627 40.9505 196.6106)" class="st2 st0 st1">P</text>
		<text transform="matrix(1.1933 -0.3309 0.2707 0.9627 40.9507 197.551)" class="st3 st4 st1">P</text>
		<text transform="matrix(1.1933 -0.3309 0.2707 0.9627 40.9507 197.551)" class="st2 st4 st1">P</text>
		<text transform="matrix(1.1933 -0.3309 0.2707 0.9627 40.9505 196.6106)" class="st5 st0 st1">P</text>
		<text transform="matrix(1.1933 -0.3309 0.2707 0.9627 40.9505 196.6106)" class="st2 st0 st1">P</text>
		<text transform="matrix(1 0 0 1 150.58 148.38)" class="st3 st4 st6">K</text>
		<text transform="matrix(1 0 0 1 150.58 148.38)" class="st2 st4 st6">K</text>
		<text transform="matrix(1 0 0 1 150.58 147.44)" class="st5 st0 st6">K</text>
		<text transform="matrix(1 0 0 1 150.58 147.44)" class="st2 st0 st6">K</text>
		<text transform="matrix(0.9994 -3.455064e-02 3.455064e-02 0.9994 251.48 152.97)" class="st3 st4 st6">S</text>
		<text transform="matrix(0.9994 -3.455064e-02 3.455064e-02 0.9994 251.48 152.97)" class="st2 st4 st6">S</text>
		<text transform="matrix(0.9994 -3.455064e-02 3.455064e-02 0.9994 251.48 152.03)" class="st5 st0 st6">S</text>
		<text transform="matrix(0.9994 -3.455064e-02 3.455064e-02 0.9994 251.48 152.03)" class="st2 st0 st6">S</text>
		<text transform="matrix(0.9808 0.1951 -0.1951 0.9808 303.71 152.12)" class="st3 st4 st6">t</text>
		<text transform="matrix(0.9808 0.1951 -0.1951 0.9808 303.71 152.12)" class="st2 st4 st6">t</text>
		<text transform="matrix(0.9808 0.1951 -0.1951 0.9808 303.71 151.1801)" class="st5 st0 st6">t</text>
		<text transform="matrix(0.9808 0.1951 -0.1951 0.9808 303.71 151.1801)" class="st2 st0 st6">t</text>
		<text transform="matrix(1 0 0 1 408.84 168.12)" class="st3 st4 st6">R</text>
		<text transform="matrix(1 0 0 1 408.84 168.12)" class="st2 st4 st6">R</text>
		<text transform="matrix(1 0 0 1 408.84 167.18)" class="st5 st0 st6">R</text>
		<text transform="matrix(1 0 0 1 408.84 167.18)" class="st2 st0 st6">R</text>
		<text transform="matrix(1 0 0 1 194.15 119.34)" class="st3 st4 st6">é</text>
		<text transform="matrix(1 0 0 1 194.15 119.34)" class="st2 st4 st6">é</text>
		<text transform="matrix(1 0 0 1 194.15 118.4)" class="st5 st0 st6">é</text>
		<text transform="matrix(1 0 0 1 194.15 118.4)" class="st2 st0 st6">é</text>
		<text transform="matrix(1 0 0 1 94.15 163.38)" class="st3 st4 st6">o</text>
		<text transform="matrix(1 0 0 1 94.15 163.38)" class="st2 st4 st6">o</text>
		<text transform="matrix(1 0 0 1 94.15 162.44)" class="st5 st0 st6">o</text>
		<text transform="matrix(1 0 0 1 94.15 162.44)" class="st2 st0 st6">o</text>
		<text transform="matrix(1 0 0 1 368.01 163.38)" class="st3 st4 st6">o</text>
		<text transform="matrix(1 0 0 1 368.01 163.38)" class="st2 st4 st6">o</text>
		<text transform="matrix(1 0 0 1 368.01 162.44)" class="st5 st0 st6">o</text>
		<text transform="matrix(1 0 0 1 368.01 162.44)" class="st2 st0 st6">o</text>
		<text transform="matrix(0.9359 0.3523 -0.3523 0.9359 474.02 129.92)" class="st3 st4 st6">y</text>
		<text transform="matrix(0.9359 0.3523 -0.3523 0.9359 474.02 129.92)" class="st2 st4 st6">y</text>
		<text transform="matrix(0.9359 0.3523 -0.3523 0.9359 474.02 128.9801)" class="st5 st0 st6">y</text>
		<text transform="matrix(0.9359 0.3523 -0.3523 0.9359 474.02 128.9801)" class="st2 st0 st6">y</text>
	</g>
</g>
</svg>
