<?xml version="1.0" encoding="utf-8"?>
<!-- Generator: Adobe Illustrator 22.0.0, SVG Export Plug-In . SVG Version: 6.00 Build 0)  -->
<svg version="1.1" id="Layer_1" xmlns="http://www.w3.org/2000/svg" xmlns:xlink="http://www.w3.org/1999/xlink" x="0px" y="0px"
	 viewBox="0 0 597.3 256.8" style="enable-background:new 0 0 597.3 256.8;" xml:space="preserve">
<style type="text/css">
	.st0{enable-background:new    ;}
	.st1{fill:none;stroke:#3B5CA8;stroke-width:4;stroke-miterlimit:10;}
	.st2{fill:#FFCB05;}
	.st3{fill:#3B5CA8;}
</style>
<title>pokestory-logo</title>
<g id="Layer_2_1_">
	<g id="Layer_1-2">
		<g class="st0">
			<path d="M10.8,109.1c5.2-3.1,10.1-5.9,14.7-8.5c4.6-2.6,9.4-5.3,14.6-7.9c5.1-2.7,10.1-5,14.9-7.1c4.8-2.1,9.6-3.8,14.4-5.1
				c3.8-1,7.3-1.8,10.6-2.2c3.3-0.4,6.5-0.5,9.6-0.1c3.1,0.3,6,1.1,8.7,2.3c2.7,1.2,5.1,2.8,7.2,4.9c0.8,0.9,1.4,1.8,1.7,3
				c1.2,4.2-0.2,10.1-4.2,17.8c-4,7.7-8.2,14.6-12.6,20.8c-4.4,6.2-7.8,10.6-10.1,13.4l22.5,31.9l-15.2,15.7L35,123.1
				c-0.1,0-0.4,0.5-1,1.4c-0.6,0.9-1.4,2.1-2.3,3.6c-1,1.5-1.6,2.4-1.8,2.8c-0.1,0-0.8-0.6-2-2c-1.2-1.4-2.9-3.3-4.9-5.9
				c-2.1-2.5-4.4-5.3-7-8.3C13.3,111.7,11.6,109.8,10.8,109.1z M16,110.1l13.6,16c0.7-1.5,1.7-2.8,2.9-4.1c1.2-1.3,2.3-2,3.3-2.3
				c0.6-0.2,1,0,1.3,0.4l50.4,63.3l11.3-10.1l-23.5-33.6c4.6-5.4,9.2-11.5,13.7-18.3c4.5-6.8,8-13.1,10.3-18.9
				c2.3-5.8,3.1-10.1,2.3-13c-0.3-1-0.7-1.8-1.2-2.3c-1.6-1.7-3.4-2.9-5.4-3.9c-2-0.9-4.2-1.5-6.6-1.7c-2.3-0.3-4.9-0.2-7.6,0.1
				c-2.7,0.3-5.7,0.9-8.9,1.8c-3.9,1.1-7.9,2.5-12,4.1c-4.1,1.7-8.3,3.6-12.5,5.7c-4.3,2.1-9.6,4.9-16.1,8.4
				C25,105.1,19.8,107.9,16,110.1z M54.6,109.8c3-1.5,5.7-2.8,8.2-4.1c2.5-1.3,5-2.5,7.6-3.6c2.6-1.1,4.8-1.9,6.7-2.4
				c1.7-0.5,3.2-0.8,4.5-0.9c2.7-0.1,4.3,0.7,4.8,2.5c1,3.4-0.7,8.6-5,15.6c-4.3,7-7.9,12.6-10.9,16.6L54.6,109.8z M60.1,112.2
				l10.4,15c2.2-3.2,4.9-7.4,8-12.6c3.1-5.3,4.4-8.8,3.9-10.6c-0.2-0.7-0.7-1-1.5-0.9c-2.2,0.2-4.3,0.6-6.3,1.2
				C68.5,105.8,63.7,108.5,60.1,112.2z"/>
		</g>
		<g class="st0">
			<path class="st1" d="M10.8,109.1c5.2-3.1,10.1-5.9,14.7-8.5c4.6-2.6,9.4-5.3,14.6-7.9c5.1-2.7,10.1-5,14.9-7.1
				c4.8-2.1,9.6-3.8,14.4-5.1c3.8-1,7.3-1.8,10.6-2.2c3.3-0.4,6.5-0.5,9.6-0.1c3.1,0.3,6,1.1,8.7,2.3c2.7,1.2,5.1,2.8,7.2,4.9
				c0.8,0.9,1.4,1.8,1.7,3c1.2,4.2-0.2,10.1-4.2,17.8c-4,7.7-8.2,14.6-12.6,20.8c-4.4,6.2-7.8,10.6-10.1,13.4l22.5,31.9l-15.2,15.7
				L35,123.1c-0.1,0-0.4,0.5-1,1.4c-0.6,0.9-1.4,2.1-2.3,3.6c-1,1.5-1.6,2.4-1.8,2.8c-0.1,0-0.8-0.6-2-2c-1.2-1.4-2.9-3.3-4.9-5.9
				c-2.1-2.5-4.4-5.3-7-8.3C13.3,111.7,11.6,109.8,10.8,109.1z M16,110.1l13.6,16c0.7-1.5,1.7-2.8,2.9-4.1c1.2-1.3,2.3-2,3.3-2.3
				c0.6-0.2,1,0,1.3,0.4l50.4,63.3l11.3-10.1l-23.5-33.6c4.6-5.4,9.2-11.5,13.7-18.3c4.5-6.8,8-13.1,10.3-18.9
				c2.3-5.8,3.1-10.1,2.3-13c-0.3-1-0.7-1.8-1.2-2.3c-1.6-1.7-3.4-2.9-5.4-3.9c-2-0.9-4.2-1.5-6.6-1.7c-2.3-0.3-4.9-0.2-7.6,0.1
				c-2.7,0.3-5.7,0.9-8.9,1.8c-3.9,1.1-7.9,2.5-12,4.1c-4.1,1.7-8.3,3.6-12.5,5.7c-4.3,2.1-9.6,4.9-16.1,8.4
				C25,105.1,19.8,107.9,16,110.1z M54.6,109.8c3-1.5,5.7-2.8,8.2-4.1c2.5-1.3,5-2.5,7.6-3.6c2.6-1.1,4.8-1.9,6.7-2.4
				c1.7-0.5,3.2-0.8,4.5-0.9c2.7-0.1,4.3,0.7,4.8,2.5c1,3.4-0.7,8.6-5,15.6c-4.3,7-7.9,12.6-10.9,16.6L54.6,109.8z M60.1,112.2
				l10.4,15c2.2-3.2,4.9-7.4,8-12.6c3.1-5.3,4.4-8.8,3.9-10.6c-0.2-0.7-0.7-1-1.5-0.9c-2.2,0.2-4.3,0.6-6.3,1.2
				C68.5,105.8,63.7,108.5,60.1,112.2z"/>
		</g>
		<g class="st0">
			<path class="st2" d="M10.8,110c5.2-3.1,10.1-5.9,14.7-8.5c4.6-2.6,9.4-5.3,14.6-7.9c5.1-2.7,10.1-5,14.9-7.1
				c3.7-1.6,7.6-2.9,11.6-4.1c6.7-1.9,11.2-2.9,13.3-3.2c3.3-0.4,6.5-0.4,9.6-0.1c3.1,0.3,6,1.1,8.7,2.3c2.7,1.2,5.1,2.8,7.2,4.9
				c0.8,0.9,1.4,1.8,1.7,3c1.2,4.2-0.2,10.1-4.2,17.8c-4,7.7-8.2,14.6-12.6,20.8c-4.4,6.2-7.8,10.6-10.1,13.4l22.5,31.9l-15.2,15.7
				L35,124.1c-0.1,0-0.4,0.5-1,1.4c-0.6,0.9-1.4,2.1-2.3,3.6c-1,1.5-1.6,2.4-1.8,2.8c-0.1,0-0.8-0.6-2-2c-1.2-1.4-2.9-3.3-4.9-5.9
				c-2.1-2.5-4.4-5.3-7-8.3C13.3,112.6,11.6,110.7,10.8,110z M60.1,113.1l10.4,15c2.2-3.2,4.9-7.4,8-12.6c3.1-5.3,4.4-8.8,3.9-10.6
				c-0.2-0.7-0.7-1-1.5-0.9c-2.2,0.2-4.3,0.6-6.3,1.2C68.5,106.8,63.7,109.4,60.1,113.1z"/>
		</g>
		<g class="st0">
			<path class="st1" d="M10.8,110c5.2-3.1,10.1-5.9,14.7-8.5c4.6-2.6,9.4-5.3,14.6-7.9c5.1-2.7,10.1-5,14.9-7.1
				c3.7-1.6,7.6-2.9,11.6-4.1c6.7-1.9,11.2-2.9,13.3-3.2c3.3-0.4,6.5-0.4,9.6-0.1c3.1,0.3,6,1.1,8.7,2.3c2.7,1.2,5.1,2.8,7.2,4.9
				c0.8,0.9,1.4,1.8,1.7,3c1.2,4.2-0.2,10.1-4.2,17.8c-4,7.7-8.2,14.6-12.6,20.8c-4.4,6.2-7.8,10.6-10.1,13.4l22.5,31.9l-15.2,15.7
				L35,124.1c-0.1,0-0.4,0.5-1,1.4c-0.6,0.9-1.4,2.1-2.3,3.6c-1,1.5-1.6,2.4-1.8,2.8c-0.1,0-0.8-0.6-2-2c-1.2-1.4-2.9-3.3-4.9-5.9
				c-2.1-2.5-4.4-5.3-7-8.3C13.3,112.6,11.6,110.7,10.8,110z M60.1,113.1l10.4,15c2.2-3.2,4.9-7.4,8-12.6c3.1-5.3,4.4-8.8,3.9-10.6
				c-0.2-0.7-0.7-1-1.5-0.9c-2.2,0.2-4.3,0.6-6.3,1.2C68.5,106.8,63.7,109.4,60.1,113.1z"/>
		</g>
		<g class="st0">
			<path class="st3" d="M10.8,109.1c5.2-3.1,10.1-5.9,14.7-8.5c4.6-2.6,9.4-5.3,14.6-7.9c5.1-2.7,10.1-5,14.9-7.1
				c4.8-2.1,9.6-3.8,14.4-5.1c3.8-1,7.3-1.8,10.6-2.2c3.3-0.4,6.5-0.5,9.6-0.1c3.1,0.3,6,1.1,8.7,2.3c2.7,1.2,5.1,2.8,7.2,4.9
				c0.8,0.9,1.4,1.8,1.7,3c1.2,4.2-0.2,10.1-4.2,17.8c-4,7.7-8.2,14.6-12.6,20.8c-4.4,6.2-7.8,10.6-10.1,13.4l22.5,31.9l-15.2,15.7
				L35,123.1c-0.1,0-0.4,0.5-1,1.4c-0.6,0.9-1.4,2.1-2.3,3.6c-1,1.5-1.6,2.4-1.8,2.8c-0.1,0-0.8-0.6-2-2c-1.2-1.4-2.9-3.3-4.9-5.9
				c-2.1-2.5-4.4-5.3-7-8.3C13.3,111.7,11.6,109.8,10.8,109.1z M16,110.1l13.6,16c0.7-1.5,1.7-2.8,2.9-4.1c1.2-1.3,2.3-2,3.3-2.3
				c0.6-0.2,1,0,1.3,0.4l50.4,63.3l11.3-10.1l-23.5-33.6c4.6-5.4,9.2-11.5,13.7-18.3c4.5-6.8,8-13.1,10.3-18.9
				c2.3-5.8,3.1-10.1,2.3-13c-0.3-1-0.7-1.8-1.2-2.3c-1.6-1.7-3.4-2.9-5.4-3.9c-2-0.9-4.2-1.5-6.6-1.7c-2.3-0.3-4.9-0.2-7.6,0.1
				c-2.7,0.3-5.7,0.9-8.9,1.8c-3.9,1.1-7.9,2.5-12,4.1c-4.1,1.7-8.3,3.6-12.5,5.7c-4.3,2.1-9.6,4.9-16.1,8.4
				C25,105.1,19.8,107.9,16,110.1z M54.6,109.8c3-1.5,5.7-2.8,8.2-4.1c2.5-1.3,5-2.5,7.6-3.6c2.6-1.1,4.8-1.9,6.7-2.4
				c1.7-0.5,3.2-0.8,4.5-0.9c2.7-0.1,4.3,0.7,4.8,2.5c1,3.4-0.7,8.6-5,15.6c-4.3,7-7.9,12.6-10.9,16.6L54.6,109.8z M60.1,112.2
				l10.4,15c2.2-3.2,4.9-7.4,8-12.6c3.1-5.3,4.4-8.8,3.9-10.6c-0.2-0.7-0.7-1-1.5-0.9c-2.2,0.2-4.3,0.6-6.3,1.2
				C68.5,105.8,63.7,108.5,60.1,112.2z"/>
		</g>
		<g class="st0">
			<path class="st1" d="M10.8,109.1c5.2-3.1,10.1-5.9,14.7-8.5c4.6-2.6,9.4-5.3,14.6-7.9c5.1-2.7,10.1-5,14.9-7.1
				c4.8-2.1,9.6-3.8,14.4-5.1c3.8-1,7.3-1.8,10.6-2.2c3.3-0.4,6.5-0.5,9.6-0.1c3.1,0.3,6,1.1,8.7,2.3c2.7,1.2,5.1,2.8,7.2,4.9
				c0.8,0.9,1.4,1.8,1.7,3c1.2,4.2-0.2,10.1-4.2,17.8c-4,7.7-8.2,14.6-12.6,20.8c-4.4,6.2-7.8,10.6-10.1,13.4l22.5,31.9l-15.2,15.7
				L35,123.1c-0.1,0-0.4,0.5-1,1.4c-0.6,0.9-1.4,2.1-2.3,3.6c-1,1.5-1.6,2.4-1.8,2.8c-0.1,0-0.8-0.6-2-2c-1.2-1.4-2.9-3.3-4.9-5.9
				c-2.1-2.5-4.4-5.3-7-8.3C13.3,111.7,11.6,109.8,10.8,109.1z M16,110.1l13.6,16c0.7-1.5,1.7-2.8,2.9-4.1c1.2-1.3,2.3-2,3.3-2.3
				c0.6-0.2,1,0,1.3,0.4l50.4,63.3l11.3-10.1l-23.5-33.6c4.6-5.4,9.2-11.5,13.7-18.3c4.5-6.8,8-13.1,10.3-18.9
				c2.3-5.8,3.1-10.1,2.3-13c-0.3-1-0.7-1.8-1.2-2.3c-1.6-1.7-3.4-2.9-5.4-3.9c-2-0.9-4.2-1.5-6.6-1.7c-2.3-0.3-4.9-0.2-7.6,0.1
				c-2.7,0.3-5.7,0.9-8.9,1.8c-3.9,1.1-7.9,2.5-12,4.1c-4.1,1.7-8.3,3.6-12.5,5.7c-4.3,2.1-9.6,4.9-16.1,8.4
				C25,105.1,19.8,107.9,16,110.1z M54.6,109.8c3-1.5,5.7-2.8,8.2-4.1c2.5-1.3,5-2.5,7.6-3.6c2.6-1.1,4.8-1.9,6.7-2.4
				c1.7-0.5,3.2-0.8,4.5-0.9c2.7-0.1,4.3,0.7,4.8,2.5c1,3.4-0.7,8.6-5,15.6c-4.3,7-7.9,12.6-10.9,16.6L54.6,109.8z M60.1,112.2
				l10.4,15c2.2-3.2,4.9-7.4,8-12.6c3.1-5.3,4.4-8.8,3.9-10.6c-0.2-0.7-0.7-1-1.5-0.9c-2.2,0.2-4.3,0.6-6.3,1.2
				C68.5,105.8,63.7,108.5,60.1,112.2z"/>
		</g>
		<g class="st0">
			<path class="st2" d="M146.4,50.5L176.1,38v19.2L192,40.4l20.2,16.8l-28.8,41.7l60,46.1l1.4,23.5l-60.9-33.1l1.5,28.8l-27.9,0.5
				L152.1,63l-8.6,1.9L146.4,50.5z"/>
		</g>
		<g class="st0">
			<path class="st1" d="M146.4,50.5L176.1,38v19.2L192,40.4l20.2,16.8l-28.8,41.7l60,46.1l1.4,23.5l-60.9-33.1l1.5,28.8l-27.9,0.5
				L152.1,63l-8.6,1.9L146.4,50.5z"/>
		</g>
		<g class="st0">
			<path class="st3" d="M146.4,49.5L176.1,37v19.2L192,39.5l20.2,16.8L183.3,98l60,46.1l1.4,23.5l-60.9-33.1l1.5,28.8l-27.9,0.5
				L152.1,62l-8.6,1.9L146.4,49.5z M149.2,51.5l-1.9,8.1l8.2-4.3l5.3,105.6l20.6-0.5l-0.9-32.6l60.9,34.1c-0.2-2.8-0.4-6.3-0.7-10.5
				s-0.5-6.3-0.7-6.3c-0.1,0-2.7-1.9-7.8-5.8c-5.1-3.8-11.6-8.7-19.4-14.7c-7.8-5.9-14.8-11.2-20.9-15.8c-6.1-4.6-10.4-7.9-12.9-9.8
				l29.8-41.8c-0.2,0-1.6-1.1-4.3-3.3s-5.1-4.2-7.1-6c-2.1-1.8-3.7-3.1-4.9-4.1l-18.8,19.2l-0.5-21.6L149.2,51.5z"/>
		</g>
		<g class="st0">
			<path class="st1" d="M146.4,49.5L176.1,37v19.2L192,39.5l20.2,16.8L183.3,98l60,46.1l1.4,23.5l-60.9-33.1l1.5,28.8l-27.9,0.5
				L152.1,62l-8.6,1.9L146.4,49.5z M149.2,51.5l-1.9,8.1l8.2-4.3l5.3,105.6l20.6-0.5l-0.9-32.6l60.9,34.1c-0.2-2.8-0.4-6.3-0.7-10.5
				s-0.5-6.3-0.7-6.3c-0.1,0-2.7-1.9-7.8-5.8c-5.1-3.8-11.6-8.7-19.4-14.7c-7.8-5.9-14.8-11.2-20.9-15.8c-6.1-4.6-10.4-7.9-12.9-9.8
				l29.8-41.8c-0.2,0-1.6-1.1-4.3-3.3s-5.1-4.2-7.1-6c-2.1-1.8-3.7-3.1-4.9-4.1l-18.8,19.2l-0.5-21.6L149.2,51.5z"/>
		</g>
		<g class="st0">
			<path class="st2" d="M246.5,62.4c4.1-9.4,13-14.4,26.9-14.9c7.3-0.3,15,0.5,23.2,2.3c8.2,1.8,17.8,4.3,29,7.5
				c-0.8,2-2.5,6.9-5,14.8S316.7,84,316.5,84c-0.3-0.3-2.1-1.3-5.5-2.9c-3.3-1.6-6.9-3.2-10.8-4.7c-3.9-1.5-7.1-2.4-9.5-2.5
				c-1.1-0.1-3.7-0.6-7.7-1.6c-4-1-7-1.4-9-1.3c-1.8,0.1-3.2,0.5-4.1,1.2c-1.6,1.2-2.3,2.5-2.3,4.1c0,1.4,0.8,2.9,2.1,4.5
				c1.4,1.6,3.2,3.2,5.4,4.8c2.2,1.6,4.6,3.1,7.3,4.6c2.7,1.5,5.3,2.8,7.9,3.9c5.3,2.4,10,5.2,13.9,8.3c4,3.2,7.1,6.4,9.3,9.6
				c2.3,3.2,3.9,6.5,5.1,9.8c1.1,3.3,1.7,6.5,1.8,9.5c0.1,3.6-0.4,6.8-1.6,9.8c-2.2,5.1-5.6,8.9-10.1,11.3c-4.5,2.4-10,3.8-16.4,4
				c-3.7,0.1-7.8-0.1-12.4-0.7c-4.6-0.6-9.1-1.4-13.4-2.4c-4.3-1-8.9-2.2-13.7-3.5c-4.8-1.3-9-2.5-12.6-3.6c0.5-1.2,1.4-3.7,2.6-7.3
				c1.2-3.6,2.2-6.8,3-9.4c0.8-2.6,1.6-5,2.3-7s1.1-3,1.3-3c1.1,0.9,4.9,2.7,11.2,5.5c6.4,2.8,11.2,4.4,14.6,4.6
				c1.3,0.1,3.4,0.5,6.4,1.2c3,0.7,5.1,1.2,6.2,1.4c1.1,0.2,2.4,0.3,4,0.3c1.8-0.1,3.1-0.5,4.1-1.2c1.7-1.3,2.5-2.7,2.5-4.2
				c-0.1-3.2-4.3-6.8-12.6-10.8c-5.1-2.4-10.8-5.9-17-10.4c-6.3-4.5-11.8-9.8-16.6-15.8c-4.8-6-7.3-12.1-7.5-18.3
				C244.6,68.6,245.2,65.5,246.5,62.4z"/>
		</g>
		<g class="st0">
			<path class="st1" d="M246.5,62.4c4.1-9.4,13-14.4,26.9-14.9c7.3-0.3,15,0.5,23.2,2.3c8.2,1.8,17.8,4.3,29,7.5
				c-0.8,2-2.5,6.9-5,14.8S316.7,84,316.5,84c-0.3-0.3-2.1-1.3-5.5-2.9c-3.3-1.6-6.9-3.2-10.8-4.7c-3.9-1.5-7.1-2.4-9.5-2.5
				c-1.1-0.1-3.7-0.6-7.7-1.6c-4-1-7-1.4-9-1.3c-1.8,0.1-3.2,0.5-4.1,1.2c-1.6,1.2-2.3,2.5-2.3,4.1c0,1.4,0.8,2.9,2.1,4.5
				c1.4,1.6,3.2,3.2,5.4,4.8c2.2,1.6,4.6,3.1,7.3,4.6c2.7,1.5,5.3,2.8,7.9,3.9c5.3,2.4,10,5.2,13.9,8.3c4,3.2,7.1,6.4,9.3,9.6
				c2.3,3.2,3.9,6.5,5.1,9.8c1.1,3.3,1.7,6.5,1.8,9.5c0.1,3.6-0.4,6.8-1.6,9.8c-2.2,5.1-5.6,8.9-10.1,11.3c-4.5,2.4-10,3.8-16.4,4
				c-3.7,0.1-7.8-0.1-12.4-0.7c-4.6-0.6-9.1-1.4-13.4-2.4c-4.3-1-8.9-2.2-13.7-3.5c-4.8-1.3-9-2.5-12.6-3.6c0.5-1.2,1.4-3.7,2.6-7.3
				c1.2-3.6,2.2-6.8,3-9.4c0.8-2.6,1.6-5,2.3-7s1.1-3,1.3-3c1.1,0.9,4.9,2.7,11.2,5.5c6.4,2.8,11.2,4.4,14.6,4.6
				c1.3,0.1,3.4,0.5,6.4,1.2c3,0.7,5.1,1.2,6.2,1.4c1.1,0.2,2.4,0.3,4,0.3c1.8-0.1,3.1-0.5,4.1-1.2c1.7-1.3,2.5-2.7,2.5-4.2
				c-0.1-3.2-4.3-6.8-12.6-10.8c-5.1-2.4-10.8-5.9-17-10.4c-6.3-4.5-11.8-9.8-16.6-15.8c-4.8-6-7.3-12.1-7.5-18.3
				C244.6,68.6,245.2,65.5,246.5,62.4z"/>
		</g>
		<g class="st0">
			<path class="st3" d="M246.5,61.5c4.1-9.4,13-14.4,26.9-14.9c7.3-0.3,15,0.5,23.2,2.3c8.2,1.8,17.8,4.3,29,7.5
				c-0.8,2-2.5,6.9-5,14.8S316.7,83,316.5,83c-0.3-0.3-2.1-1.3-5.5-2.9c-3.3-1.6-6.9-3.2-10.8-4.7c-3.9-1.5-7.1-2.4-9.5-2.5
				c-1.1-0.1-3.7-0.6-7.7-1.6c-4-1-7-1.4-9-1.3c-1.8,0.1-3.2,0.5-4.1,1.2c-1.6,1.2-2.3,2.5-2.3,4.1c0,1.4,0.8,2.9,2.1,4.5
				c1.4,1.6,3.2,3.2,5.4,4.8c2.2,1.6,4.6,3.1,7.3,4.6c2.7,1.5,5.3,2.8,7.9,3.9c5.3,2.4,10,5.2,13.9,8.3c4,3.2,7.1,6.4,9.3,9.6
				c2.3,3.2,3.9,6.5,5.1,9.8c1.1,3.3,1.7,6.5,1.8,9.5c0.1,3.6-0.4,6.8-1.6,9.8c-2.2,5.1-5.6,8.9-10.1,11.3c-4.5,2.4-10,3.8-16.4,4
				c-3.7,0.1-7.8-0.1-12.4-0.7c-4.6-0.6-9.1-1.4-13.4-2.4c-4.3-1-8.9-2.2-13.7-3.5c-4.8-1.3-9-2.5-12.6-3.6c0.5-1.2,1.4-3.7,2.6-7.3
				c1.2-3.6,2.2-6.8,3-9.4c0.8-2.6,1.6-5,2.3-7s1.1-3,1.3-3c1.1,0.9,4.9,2.7,11.2,5.5c6.4,2.8,11.2,4.4,14.6,4.6
				c1.3,0.1,3.4,0.5,6.4,1.2c3,0.7,5.1,1.2,6.2,1.4c1.1,0.2,2.4,0.3,4,0.3c1.8-0.1,3.1-0.5,4.1-1.2c1.7-1.3,2.5-2.7,2.5-4.2
				c-0.1-3.2-4.3-6.8-12.6-10.8c-5.1-2.4-10.8-5.9-17-10.4c-6.3-4.5-11.8-9.8-16.6-15.8c-4.8-6-7.3-12.1-7.5-18.3
				C244.6,67.7,245.2,64.6,246.5,61.5z M250.9,61.8c-1.1,2.7-1.6,5.6-1.5,8.6c0.1,4,1.3,8.1,3.6,12.3c2.3,4.2,5.3,8.2,9.1,12.1
				c3.8,3.9,7.9,7.4,12.4,10.4c4.4,3,9.2,5.7,14.2,8.1c2.1,0.9,4.2,2.3,6.4,4c2.2,1.7,4,3.6,5.5,5.6c1.5,2,2.3,3.9,2.3,5.7
				c0.1,2.7-1.7,4.5-5.4,5.5c-0.5,0.2-1.6,0.3-3.2,0.4c-2.2,0.1-4.8-0.1-7.7-0.4c-3-0.3-6.3-0.9-10-1.6c-3.7-0.7-7-1.5-10-2.4
				c-3-0.9-5.9-1.9-8.7-3.2c-0.4-0.2-1.1-0.4-2.1-0.6c-1-0.2-1.9-0.5-2.8-0.9c-0.8-0.4-1.6-1.1-2.4-2.1l-6.5,19.5
				c4,1,8.8,2.2,14.4,3.5c5.6,1.3,10.3,2.4,14.2,3.1c3.9,0.8,7.7,1.4,11.5,1.8c3.7,0.4,7,0.6,9.9,0.5c5.3-0.2,9.8-1.2,13.3-3.1
				c3.5-1.9,6.1-4.8,7.6-8.8c1.1-2.5,1.6-5.6,1.5-9.2c-0.1-2.6-0.6-5.2-1.5-8c-0.9-2.7-2.4-5.5-4.5-8.3c-2.1-2.8-4.9-5.7-8.6-8.6
				c-3.7-2.9-8.1-5.6-13.4-8.2c-5.1-2.5-10.4-6-16-10.3c-5.6-4.4-8.5-8.6-8.6-12.6c-0.1-2.8,1.4-5.1,4.4-7.1c1.1-0.7,2.7-1,4.9-1.1
				c2.1-0.1,4.7,0.1,7.8,0.6c3,0.4,6.2,1.1,9.5,1.9c3.3,0.8,6.5,1.8,9.5,2.8c3,1,5.6,2.1,7.9,3.2c0.4,0.2,1.1,0.4,2.2,0.6
				c1.1,0.2,2,0.5,2.8,0.9s1.6,1.1,2.4,2.1l6.5-19.4c-5.7-1.5-11.6-2.9-17.8-4.1c-6.1-1.3-11.8-2.2-17-2.8c-5.2-0.6-10-0.9-14.3-0.7
				C260.8,51.6,253.5,55.1,250.9,61.8z"/>
		</g>
		<g class="st0">
			<path class="st1" d="M246.5,61.5c4.1-9.4,13-14.4,26.9-14.9c7.3-0.3,15,0.5,23.2,2.3c8.2,1.8,17.8,4.3,29,7.5
				c-0.8,2-2.5,6.9-5,14.8S316.7,83,316.5,83c-0.3-0.3-2.1-1.3-5.5-2.9c-3.3-1.6-6.9-3.2-10.8-4.7c-3.9-1.5-7.1-2.4-9.5-2.5
				c-1.1-0.1-3.7-0.6-7.7-1.6c-4-1-7-1.4-9-1.3c-1.8,0.1-3.2,0.5-4.1,1.2c-1.6,1.2-2.3,2.5-2.3,4.1c0,1.4,0.8,2.9,2.1,4.5
				c1.4,1.6,3.2,3.2,5.4,4.8c2.2,1.6,4.6,3.1,7.3,4.6c2.7,1.5,5.3,2.8,7.9,3.9c5.3,2.4,10,5.2,13.9,8.3c4,3.2,7.1,6.4,9.3,9.6
				c2.3,3.2,3.9,6.5,5.1,9.8c1.1,3.3,1.7,6.5,1.8,9.5c0.1,3.6-0.4,6.8-1.6,9.8c-2.2,5.1-5.6,8.9-10.1,11.3c-4.5,2.4-10,3.8-16.4,4
				c-3.7,0.1-7.8-0.1-12.4-0.7c-4.6-0.6-9.1-1.4-13.4-2.4c-4.3-1-8.9-2.2-13.7-3.5c-4.8-1.3-9-2.5-12.6-3.6c0.5-1.2,1.4-3.7,2.6-7.3
				c1.2-3.6,2.2-6.8,3-9.4c0.8-2.6,1.6-5,2.3-7s1.1-3,1.3-3c1.1,0.9,4.9,2.7,11.2,5.5c6.4,2.8,11.2,4.4,14.6,4.6
				c1.3,0.1,3.4,0.5,6.4,1.2c3,0.7,5.1,1.2,6.2,1.4c1.1,0.2,2.4,0.3,4,0.3c1.8-0.1,3.1-0.5,4.1-1.2c1.7-1.3,2.5-2.7,2.5-4.2
				c-0.1-3.2-4.3-6.8-12.6-10.8c-5.1-2.4-10.8-5.9-17-10.4c-6.3-4.5-11.8-9.8-16.6-15.8c-4.8-6-7.3-12.1-7.5-18.3
				C244.6,67.7,245.2,64.6,246.5,61.5z M250.9,61.8c-1.1,2.7-1.6,5.6-1.5,8.6c0.1,4,1.3,8.1,3.6,12.3c2.3,4.2,5.3,8.2,9.1,12.1
				c3.8,3.9,7.9,7.4,12.4,10.4c4.4,3,9.2,5.7,14.2,8.1c2.1,0.9,4.2,2.3,6.4,4c2.2,1.7,4,3.6,5.5,5.6c1.5,2,2.3,3.9,2.3,5.7
				c0.1,2.7-1.7,4.5-5.4,5.5c-0.5,0.2-1.6,0.3-3.2,0.4c-2.2,0.1-4.8-0.1-7.7-0.4c-3-0.3-6.3-0.9-10-1.6c-3.7-0.7-7-1.5-10-2.4
				c-3-0.9-5.9-1.9-8.7-3.2c-0.4-0.2-1.1-0.4-2.1-0.6c-1-0.2-1.9-0.5-2.8-0.9c-0.8-0.4-1.6-1.1-2.4-2.1l-6.5,19.5
				c4,1,8.8,2.2,14.4,3.5c5.6,1.3,10.3,2.4,14.2,3.1c3.9,0.8,7.7,1.4,11.5,1.8c3.7,0.4,7,0.6,9.9,0.5c5.3-0.2,9.8-1.2,13.3-3.1
				c3.5-1.9,6.1-4.8,7.6-8.8c1.1-2.5,1.6-5.6,1.5-9.2c-0.1-2.6-0.6-5.2-1.5-8c-0.9-2.7-2.4-5.5-4.5-8.3c-2.1-2.8-4.9-5.7-8.6-8.6
				c-3.7-2.9-8.1-5.6-13.4-8.2c-5.1-2.5-10.4-6-16-10.3c-5.6-4.4-8.5-8.6-8.6-12.6c-0.1-2.8,1.4-5.1,4.4-7.1c1.1-0.7,2.7-1,4.9-1.1
				c2.1-0.1,4.7,0.1,7.8,0.6c3,0.4,6.2,1.1,9.5,1.9c3.3,0.8,6.5,1.8,9.5,2.8c3,1,5.6,2.1,7.9,3.2c0.4,0.2,1.1,0.4,2.2,0.6
				c1.1,0.2,2,0.5,2.8,0.9s1.6,1.1,2.4,2.1l6.5-19.4c-5.7-1.5-11.6-2.9-17.8-4.1c-6.1-1.3-11.8-2.2-17-2.8c-5.2-0.6-10-0.9-14.3-0.7
				C260.8,51.6,253.5,55.1,250.9,61.8z"/>
		</g>
		<g class="st0">
			<path class="st2" d="M335.1,53.5l27.4-6.3l-8.1,38.5l18.6,4.2l-4.4,22.1l-19.5-3.6c-1.8,5.3-3.1,10.3-4.1,15.1
				c-0.8,4-1.2,7.3-1.3,10c0,2.2,0.6,4.1,1.9,5.5c1.3,1.5,3,2.4,5,2.8c2.3,0.5,4.4,0.2,6.3-0.8c2-1,3.2-2.7,3.7-5
				c0.1-0.3,0.1-1,0.2-2.1l21.2-8.5c0.5,1.7,1,4.4,1.5,8.1c0.5,3.8,0.3,7.7-0.5,11.9c-1,5-3.2,9.3-6.7,12.8
				c-3.5,3.5-8.6,5.7-15.4,6.6c-4.8,0.6-9.2,0.4-13.1-0.3c-6-1.2-11-3.6-15.1-7.1c-4.1-3.6-7.2-7.5-9.5-11.8c-1.1-2-1.6-5.1-1.6-9.2
				s0.3-8.4,1-12.8c0.6-4.4,1.4-8.7,2.2-13.1l1.3-6.5l-17.1-2.9l0.9-26.8l21.1,5.7L335.1,53.5z"/>
		</g>
		<g class="st0">
			<path class="st1" d="M335.1,53.5l27.4-6.3l-8.1,38.5l18.6,4.2l-4.4,22.1l-19.5-3.6c-1.8,5.3-3.1,10.3-4.1,15.1
				c-0.8,4-1.2,7.3-1.3,10c0,2.2,0.6,4.1,1.9,5.5c1.3,1.5,3,2.4,5,2.8c2.3,0.5,4.4,0.2,6.3-0.8c2-1,3.2-2.7,3.7-5
				c0.1-0.3,0.1-1,0.2-2.1l21.2-8.5c0.5,1.7,1,4.4,1.5,8.1c0.5,3.8,0.3,7.7-0.5,11.9c-1,5-3.2,9.3-6.7,12.8
				c-3.5,3.5-8.6,5.7-15.4,6.6c-4.8,0.6-9.2,0.4-13.1-0.3c-6-1.2-11-3.6-15.1-7.1c-4.1-3.6-7.2-7.5-9.5-11.8c-1.1-2-1.6-5.1-1.6-9.2
				s0.3-8.4,1-12.8c0.6-4.4,1.4-8.7,2.2-13.1l1.3-6.5l-17.1-2.9l0.9-26.8l21.1,5.7L335.1,53.5z"/>
		</g>
		<g class="st0">
			<path class="st3" d="M335.1,52.6l27.4-6.3l-8.1,38.5l18.6,4.2l-4.4,22.1l-19.5-3.6c-1.8,5.3-3.1,10.3-4.1,15.1
				c-0.8,4-1.2,7.3-1.3,10c0,2.2,0.6,4.1,1.9,5.5c1.3,1.5,3,2.4,5,2.8c2.3,0.5,4.4,0.2,6.3-0.8c2-1,3.2-2.7,3.7-5
				c0.1-0.3,0.1-1,0.2-2.1l21.2-8.5c0.5,1.7,1,4.4,1.5,8.1c0.5,3.8,0.3,7.7-0.5,11.9c-1,5-3.2,9.3-6.7,12.8
				c-3.5,3.5-8.6,5.7-15.4,6.6c-4.8,0.6-9.2,0.4-13.1-0.3c-6-1.2-11-3.6-15.1-7.1c-4.1-3.6-7.2-7.5-9.5-11.8c-1.1-2-1.6-5.1-1.6-9.2
				c0-4.1,0.3-8.4,1-12.8c0.6-4.4,1.4-8.7,2.2-13.1l1.3-6.5l-17.1-2.9l0.9-26.8l21.1,5.7L335.1,52.6z M338.6,55.7L333.2,84
				l-19.7-5.4l0,19.5l16.2,2.3c-0.6,2.8-1.5,6.7-2.4,11.6c-1.2,6.2-2,11.5-2.4,15.9c-0.4,4.4-0.2,8.3,0.4,11.7
				c2.3,10.7,9.5,17.5,21.4,20.4c2.9,0.6,6.2,0.7,9.7,0.5c3.6-0.3,7-1.1,10.3-2.4c3.3-1.3,6.1-3.3,8.6-6c2.4-2.7,4-6,4.8-9.9
				c0.8-4.1,0.7-8.5-0.3-13.3l-16.4,6.1c-0.6,2.8-1.6,5-3,6.5s-3.1,2.6-5,3c-1.9,0.4-3.8,0.5-5.8,0.1c-1.8-0.4-3.5-1.1-4.8-2.1
				c-2.3-1.2-3.6-3.7-3.9-7.5s0.2-8.4,1.3-13.8c0.4-2.2,1.1-5.2,2.1-9.1c0.9-3.9,1.5-6.6,1.8-7.9l20.2,4l2.9-17l-19.3-3.3l7.8-37.2
				L338.6,55.7z"/>
		</g>
		<g class="st0">
			<path class="st1" d="M335.1,52.6l27.4-6.3l-8.1,38.5l18.6,4.2l-4.4,22.1l-19.5-3.6c-1.8,5.3-3.1,10.3-4.1,15.1
				c-0.8,4-1.2,7.3-1.3,10c0,2.2,0.6,4.1,1.9,5.5c1.3,1.5,3,2.4,5,2.8c2.3,0.5,4.4,0.2,6.3-0.8c2-1,3.2-2.7,3.7-5
				c0.1-0.3,0.1-1,0.2-2.1l21.2-8.5c0.5,1.7,1,4.4,1.5,8.1c0.5,3.8,0.3,7.7-0.5,11.9c-1,5-3.2,9.3-6.7,12.8
				c-3.5,3.5-8.6,5.7-15.4,6.6c-4.8,0.6-9.2,0.4-13.1-0.3c-6-1.2-11-3.6-15.1-7.1c-4.1-3.6-7.2-7.5-9.5-11.8c-1.1-2-1.6-5.1-1.6-9.2
				c0-4.1,0.3-8.4,1-12.8c0.6-4.4,1.4-8.7,2.2-13.1l1.3-6.5l-17.1-2.9l0.9-26.8l21.1,5.7L335.1,52.6z M338.6,55.7L333.2,84
				l-19.7-5.4l0,19.5l16.2,2.3c-0.6,2.8-1.5,6.7-2.4,11.6c-1.2,6.2-2,11.5-2.4,15.9c-0.4,4.4-0.2,8.3,0.4,11.7
				c2.3,10.7,9.5,17.5,21.4,20.4c2.9,0.6,6.2,0.7,9.7,0.5c3.6-0.3,7-1.1,10.3-2.4c3.3-1.3,6.1-3.3,8.6-6c2.4-2.7,4-6,4.8-9.9
				c0.8-4.1,0.7-8.5-0.3-13.3l-16.4,6.1c-0.6,2.8-1.6,5-3,6.5s-3.1,2.6-5,3c-1.9,0.4-3.8,0.5-5.8,0.1c-1.8-0.4-3.5-1.1-4.8-2.1
				c-2.3-1.2-3.6-3.7-3.9-7.5s0.2-8.4,1.3-13.8c0.4-2.2,1.1-5.2,2.1-9.1c0.9-3.9,1.5-6.6,1.8-7.9l20.2,4l2.9-17l-19.3-3.3l7.8-37.2
				L338.6,55.7z"/>
		</g>
		<g class="st0">
			<path class="st2" d="M452.8,116.1c-1.4,1.4-2.9,2.9-4.6,4.4c-1.6,1.5-2.8,2.5-3.3,3l7.7,42.7l-20.2,5.3l-12-76.3
				c-0.2,0-0.7,0.4-1.3,1.1s-1.5,1.7-2.6,3s-1.7,2-1.8,2.2c-0.1,0-0.5-0.8-1.1-2.5c-0.6-1.7-1.5-4-2.6-7s-2.3-6.3-3.6-10
				c-1.3-3.7-2.3-5.9-2.7-6.9c4.7-1.6,9.2-3,13.3-4.3c4.2-1.3,8.5-2.6,13.2-3.8c4.6-1.2,9-2.1,13.2-2.8s8.3-1.1,12.4-1.1
				c3.2,0,6.1,0.2,8.7,0.7c2.7,0.5,5.2,1.3,7.5,2.4c2.4,1.1,4.5,2.6,6.3,4.5c1.9,1.9,3.4,4.1,4.5,6.7c0.4,0.8,0.6,1.8,0.6,3
				c0,1.9-0.6,4-1.7,6.3s-2.7,4.7-4.6,7.3c-1.9,2.6-4,5.2-6.3,7.9c2.1,0.2,4.2,1.8,6.2,4.7s3.4,6.3,4.4,10.2l10.1,51.9l-17.8,3.9
				l-12.9-47.5c-0.2-0.7-0.7-1.7-1.3-3s-1.6-2.7-2.7-4c-1.1-1.3-2.3-2-3.6-2C453.8,115.9,453.4,116,452.8,116.1z M438.7,89.4
				l3.3,17.2c2.6-0.5,5.5-2.8,8.6-6.7c3.2-3.9,4.8-7,4.8-9.4c0-1.2-0.5-1.9-1.4-2.2c-4-1-6.7-1.5-8-1.5
				C443.5,86.9,441.1,87.7,438.7,89.4z"/>
		</g>
		<g class="st0">
			<path class="st1" d="M452.8,116.1c-1.4,1.4-2.9,2.9-4.6,4.4c-1.6,1.5-2.8,2.5-3.3,3l7.7,42.7l-20.2,5.3l-12-76.3
				c-0.2,0-0.7,0.4-1.3,1.1s-1.5,1.7-2.6,3s-1.7,2-1.8,2.2c-0.1,0-0.5-0.8-1.1-2.5c-0.6-1.7-1.5-4-2.6-7s-2.3-6.3-3.6-10
				c-1.3-3.7-2.3-5.9-2.7-6.9c4.7-1.6,9.2-3,13.3-4.3c4.2-1.3,8.5-2.6,13.2-3.8c4.6-1.2,9-2.1,13.2-2.8s8.3-1.1,12.4-1.1
				c3.2,0,6.1,0.2,8.7,0.7c2.7,0.5,5.2,1.3,7.5,2.4c2.4,1.1,4.5,2.6,6.3,4.5c1.9,1.9,3.4,4.1,4.5,6.7c0.4,0.8,0.6,1.8,0.6,3
				c0,1.9-0.6,4-1.7,6.3s-2.7,4.7-4.6,7.3c-1.9,2.6-4,5.2-6.3,7.9c2.1,0.2,4.2,1.8,6.2,4.7s3.4,6.3,4.4,10.2l10.1,51.9l-17.8,3.9
				l-12.9-47.5c-0.2-0.7-0.7-1.7-1.3-3s-1.6-2.7-2.7-4c-1.1-1.3-2.3-2-3.6-2C453.8,115.9,453.4,116,452.8,116.1z M438.7,89.4
				l3.3,17.2c2.6-0.5,5.5-2.8,8.6-6.7c3.2-3.9,4.8-7,4.8-9.4c0-1.2-0.5-1.9-1.4-2.2c-4-1-6.7-1.5-8-1.5
				C443.5,86.9,441.1,87.7,438.7,89.4z"/>
		</g>
		<g class="st0">
			<path class="st3" d="M452.8,115.2c-1.4,1.4-2.9,2.9-4.6,4.4c-1.6,1.5-2.8,2.5-3.3,3l7.7,42.7l-20.2,5.3l-12-76.3
				c-0.2,0-0.7,0.4-1.3,1.1s-1.5,1.7-2.6,3s-1.7,2-1.8,2.2c-0.1,0-0.5-0.8-1.1-2.5c-0.6-1.7-1.5-4-2.6-7s-2.3-6.3-3.6-10
				c-1.3-3.7-2.3-5.9-2.7-6.9c4.7-1.6,9.2-3,13.3-4.3c4.2-1.3,8.5-2.6,13.2-3.8c4.6-1.2,9-2.1,13.2-2.8s8.3-1.1,12.4-1.1
				c3.2,0,6.1,0.2,8.7,0.7c2.7,0.5,5.2,1.3,7.5,2.4c2.4,1.1,4.5,2.6,6.3,4.5c1.9,1.9,3.4,4.1,4.5,6.7c0.4,0.8,0.6,1.8,0.6,3
				c0,1.9-0.6,4-1.7,6.3s-2.7,4.7-4.6,7.3c-1.9,2.6-4,5.2-6.3,7.9c2.1,0.2,4.2,1.8,6.2,4.7s3.4,6.3,4.4,10.2l10.1,51.9l-17.8,3.9
				L461.8,124c-0.2-0.7-0.7-1.7-1.3-3s-1.6-2.7-2.7-4c-1.1-1.3-2.3-2-3.6-2C453.8,115,453.4,115.1,452.8,115.2z M465.6,103.3
				c4.6-5.2,8.1-9.8,10.6-13.9c2.5-4.1,3.8-7.5,3.8-10.1c0-1-0.2-1.8-0.5-2.4c-0.9-2-2-3.8-3.4-5.2c-1.4-1.4-3-2.6-4.7-3.5
				s-3.8-1.5-5.9-1.9s-4.6-0.6-7.3-0.6c-3.3,0-6.7,0.3-10.3,0.8s-7.2,1.3-11,2.2c-3.8,0.9-8.6,2.2-14.4,3.8
				c-5.8,1.6-10.4,2.9-13.9,4l7.1,19.2c0.9-1.3,2-2.3,3.2-3.2s2.3-1.3,3-1.3c0.5,0,0.8,0.2,0.9,0.7l12,74.9l13.5-3.9l-7.2-42.2
				c1.3-1.1,3.2-2.5,5.7-4.3c2.5-1.8,4.6-3.6,6.2-5.2c1.5,0.4,3.2,1.3,5.1,2.6c1.9,1.3,3.5,2.8,4.9,4.5c1.4,1.7,2.1,3.2,2.1,4.5
				c0,0.7-0.2,1.3-0.5,1.8l12.9,42.2l10.5-2.9l-9.1-46.6c0-1-0.2-2.5-0.7-4.5c-0.5-2-1.7-4.1-3.8-6.1
				C472.5,104.6,469.5,103.5,465.6,103.3z M434.9,85.6c4.5-1,7.7-1.7,9.6-2c1.9-0.3,3.9-0.5,5.9-0.5c1.7,0,3.4,0.2,5.2,0.6
				c3.3,0.8,4.9,2.5,4.9,5.3c0,2.2-1,4.8-3,7.7c-2,3-4.6,5.8-7.9,8.5c-3.2,2.7-6.5,4.8-9.8,6.3L434.9,85.6z M438.7,88.5l3.3,17.2
				c2.6-0.5,5.5-2.8,8.6-6.7c3.2-3.9,4.8-7,4.8-9.4c0-1.2-0.5-1.9-1.4-2.2c-4-1-6.7-1.5-8-1.5C443.5,86,441.1,86.8,438.7,88.5z"/>
		</g>
		<g class="st0">
			<path class="st1" d="M452.8,115.2c-1.4,1.4-2.9,2.9-4.6,4.4c-1.6,1.5-2.8,2.5-3.3,3l7.7,42.7l-20.2,5.3l-12-76.3
				c-0.2,0-0.7,0.4-1.3,1.1s-1.5,1.7-2.6,3s-1.7,2-1.8,2.2c-0.1,0-0.5-0.8-1.1-2.5c-0.6-1.7-1.5-4-2.6-7s-2.3-6.3-3.6-10
				c-1.3-3.7-2.3-5.9-2.7-6.9c4.7-1.6,9.2-3,13.3-4.3c4.2-1.3,8.5-2.6,13.2-3.8c4.6-1.2,9-2.1,13.2-2.8s8.3-1.1,12.4-1.1
				c3.2,0,6.1,0.2,8.7,0.7c2.7,0.5,5.2,1.3,7.5,2.4c2.4,1.1,4.5,2.6,6.3,4.5c1.9,1.9,3.4,4.1,4.5,6.7c0.4,0.8,0.6,1.8,0.6,3
				c0,1.9-0.6,4-1.7,6.3s-2.7,4.7-4.6,7.3c-1.9,2.6-4,5.2-6.3,7.9c2.1,0.2,4.2,1.8,6.2,4.7s3.4,6.3,4.4,10.2l10.1,51.9l-17.8,3.9
				L461.8,124c-0.2-0.7-0.7-1.7-1.3-3s-1.6-2.7-2.7-4c-1.1-1.3-2.3-2-3.6-2C453.8,115,453.4,115.1,452.8,115.2z M465.6,103.3
				c4.6-5.2,8.1-9.8,10.6-13.9c2.5-4.1,3.8-7.5,3.8-10.1c0-1-0.2-1.8-0.5-2.4c-0.9-2-2-3.8-3.4-5.2c-1.4-1.4-3-2.6-4.7-3.5
				s-3.8-1.5-5.9-1.9s-4.6-0.6-7.3-0.6c-3.3,0-6.7,0.3-10.3,0.8s-7.2,1.3-11,2.2c-3.8,0.9-8.6,2.2-14.4,3.8
				c-5.8,1.6-10.4,2.9-13.9,4l7.1,19.2c0.9-1.3,2-2.3,3.2-3.2s2.3-1.3,3-1.3c0.5,0,0.8,0.2,0.9,0.7l12,74.9l13.5-3.9l-7.2-42.2
				c1.3-1.1,3.2-2.5,5.7-4.3c2.5-1.8,4.6-3.6,6.2-5.2c1.5,0.4,3.2,1.3,5.1,2.6c1.9,1.3,3.5,2.8,4.9,4.5c1.4,1.7,2.1,3.2,2.1,4.5
				c0,0.7-0.2,1.3-0.5,1.8l12.9,42.2l10.5-2.9l-9.1-46.6c0-1-0.2-2.5-0.7-4.5c-0.5-2-1.7-4.1-3.8-6.1
				C472.5,104.6,469.5,103.5,465.6,103.3z M434.9,85.6c4.5-1,7.7-1.7,9.6-2c1.9-0.3,3.9-0.5,5.9-0.5c1.7,0,3.4,0.2,5.2,0.6
				c3.3,0.8,4.9,2.5,4.9,5.3c0,2.2-1,4.8-3,7.7c-2,3-4.6,5.8-7.9,8.5c-3.2,2.7-6.5,4.8-9.8,6.3L434.9,85.6z M438.7,88.5l3.3,17.2
				c2.6-0.5,5.5-2.8,8.6-6.7c3.2-3.9,4.8-7,4.8-9.4c0-1.2-0.5-1.9-1.4-2.2c-4-1-6.7-1.5-8-1.5C443.5,86,441.1,86.8,438.7,88.5z"/>
		</g>
		<g class="st0">
			<path class="st2" d="M248.8,86.9l14.1,17.1c-1.1,3.3-3.8,6.3-8.1,9c-4.2,2.7-9.3,4.9-15.1,6.5c-5.8,1.6-11.7,2.4-17.5,2.4
				c-5.2,0-9.8-0.7-13.8-2.1s-7.2-3.4-9.3-6.2c-3.8-4.8-5.7-10.9-5.7-18.3c0-5.9,1.1-11.6,3.2-17.3c2.1-5.7,4.4-9.7,6.8-11.9
				c2.9-2.7,5.9-4.9,9.3-6.7c3.3-1.8,6.8-3.1,10.4-4c3.6-0.9,7.3-1.3,11.1-1.3c5,0,9.7,0.8,14.2,2.4c4.5,1.6,8.4,3.9,11.7,6.9
				l-32.2,38.4c2.9,0,5.6-0.6,8.1-1.8c2.6-1.2,4.9-2.9,7.1-5.1C245.2,92.5,247.1,89.9,248.8,86.9z M202.4,31l31.2-17.3l13.4,20.6
				l-37.9,7.2L202.4,31z M232.5,73.3c-1.9-1-3.9-1.5-5.9-1.5c-2.1,0-4.2,0.4-6.1,1.3c-2,0.9-3.4,1.9-4.2,3
				c-2.4,3.1-3.6,6.6-3.6,10.3c0,1.4,0.1,2.7,0.4,3.9c0.3,1.3,0.7,3,1.4,5.2L232.5,73.3z"/>
		</g>
		<g class="st0">
			<path class="st1" d="M248.8,86.9l14.1,17.1c-1.1,3.3-3.8,6.3-8.1,9c-4.2,2.7-9.3,4.9-15.1,6.5c-5.8,1.6-11.7,2.4-17.5,2.4
				c-5.2,0-9.8-0.7-13.8-2.1s-7.2-3.4-9.3-6.2c-3.8-4.8-5.7-10.9-5.7-18.3c0-5.9,1.1-11.6,3.2-17.3c2.1-5.7,4.4-9.7,6.8-11.9
				c2.9-2.7,5.9-4.9,9.3-6.7c3.3-1.8,6.8-3.1,10.4-4c3.6-0.9,7.3-1.3,11.1-1.3c5,0,9.7,0.8,14.2,2.4c4.5,1.6,8.4,3.9,11.7,6.9
				l-32.2,38.4c2.9,0,5.6-0.6,8.1-1.8c2.6-1.2,4.9-2.9,7.1-5.1C245.2,92.5,247.1,89.9,248.8,86.9z M202.4,31l31.2-17.3l13.4,20.6
				l-37.9,7.2L202.4,31z M232.5,73.3c-1.9-1-3.9-1.5-5.9-1.5c-2.1,0-4.2,0.4-6.1,1.3c-2,0.9-3.4,1.9-4.2,3
				c-2.4,3.1-3.6,6.6-3.6,10.3c0,1.4,0.1,2.7,0.4,3.9c0.3,1.3,0.7,3,1.4,5.2L232.5,73.3z"/>
		</g>
		<g class="st0">
			<path class="st3" d="M248.8,86l14.1,17.1c-1.1,3.3-3.8,6.3-8.1,9c-4.2,2.7-9.3,4.9-15.1,6.5c-5.8,1.6-11.7,2.4-17.5,2.4
				c-5.2,0-9.8-0.7-13.8-2.1s-7.2-3.4-9.3-6.2c-3.8-4.8-5.7-10.9-5.7-18.3c0-5.9,1.1-11.6,3.2-17.3c2.1-5.7,4.4-9.7,6.8-11.9
				c2.9-2.7,5.9-4.9,9.3-6.7c3.3-1.8,6.8-3.1,10.4-4c3.6-0.9,7.3-1.3,11.1-1.3c5,0,9.7,0.8,14.2,2.4c4.5,1.6,8.4,3.9,11.7,6.9
				l-32.2,38.4c2.9,0,5.6-0.6,8.1-1.8c2.6-1.2,4.9-2.9,7.1-5.1C245.2,91.6,247.1,89,248.8,86z M249.1,89.2c0,2-1.4,4.1-4.2,6.6
				c-2.8,2.4-6.2,4.5-10.2,6.2c-4,1.7-7.6,2.6-10.7,2.6c-1.2,0-2.1-0.1-2.6-0.2l34.8-41.7c-3.4-2-7.1-3.6-11.2-4.7
				c-4.1-1.2-8.2-1.8-12.5-1.8c-4.9,0-9.6,0.9-14.1,2.6s-8.5,4.6-12.2,8.6c-1.8,1.9-3.3,4.3-4.7,7.1c-1.4,2.9-2.5,6.1-3.3,9.6
				s-1.2,7-1.2,10.4c0,7.5,2,13.2,6,17.1c4.9,4.6,11.6,7,20,7c5.1,0,10.3-0.8,15.6-2.4c5.3-1.6,9.9-3.6,13.7-6.1
				c3.9-2.5,6.3-5,7.4-7.4L249.1,89.2z M202.4,30.1l31.2-17.3l13.4,20.6l-37.9,7.2L202.4,30.1z M205.8,30.6l3.9,7.2l33.1-5.8
				l-10.1-15.8L205.8,30.6z M214.2,98.9c-1.1-0.7-2.1-2.3-2.9-4.9c-0.8-2.6-1.2-5.4-1.2-8.5c0-5.7,1.4-10.1,4.1-13.2
				c1.2-1.3,2.7-2.4,4.7-3.2c2-0.8,4.1-1.2,6.4-1.2c3.9,0,7.7,1.2,11.2,3.7L214.2,98.9z M232.5,72.3c-1.9-1-3.9-1.5-5.9-1.5
				c-2.1,0-4.2,0.4-6.1,1.3c-2,0.9-3.4,1.9-4.2,3c-2.4,3.1-3.6,6.6-3.6,10.3c0,1.4,0.1,2.7,0.4,3.9c0.3,1.3,0.7,3,1.4,5.2
				L232.5,72.3z"/>
		</g>
		<g class="st0">
			<path class="st1" d="M248.8,86l14.1,17.1c-1.1,3.3-3.8,6.3-8.1,9c-4.2,2.7-9.3,4.9-15.1,6.5c-5.8,1.6-11.7,2.4-17.5,2.4
				c-5.2,0-9.8-0.7-13.8-2.1s-7.2-3.4-9.3-6.2c-3.8-4.8-5.7-10.9-5.7-18.3c0-5.9,1.1-11.6,3.2-17.3c2.1-5.7,4.4-9.7,6.8-11.9
				c2.9-2.7,5.9-4.9,9.3-6.7c3.3-1.8,6.8-3.1,10.4-4c3.6-0.9,7.3-1.3,11.1-1.3c5,0,9.7,0.8,14.2,2.4c4.5,1.6,8.4,3.9,11.7,6.9
				l-32.2,38.4c2.9,0,5.6-0.6,8.1-1.8c2.6-1.2,4.9-2.9,7.1-5.1C245.2,91.6,247.1,89,248.8,86z M249.1,89.2c0,2-1.4,4.1-4.2,6.6
				c-2.8,2.4-6.2,4.5-10.2,6.2c-4,1.7-7.6,2.6-10.7,2.6c-1.2,0-2.1-0.1-2.6-0.2l34.8-41.7c-3.4-2-7.1-3.6-11.2-4.7
				c-4.1-1.2-8.2-1.8-12.5-1.8c-4.9,0-9.6,0.9-14.1,2.6s-8.5,4.6-12.2,8.6c-1.8,1.9-3.3,4.3-4.7,7.1c-1.4,2.9-2.5,6.1-3.3,9.6
				s-1.2,7-1.2,10.4c0,7.5,2,13.2,6,17.1c4.9,4.6,11.6,7,20,7c5.1,0,10.3-0.8,15.6-2.4c5.3-1.6,9.9-3.6,13.7-6.1
				c3.9-2.5,6.3-5,7.4-7.4L249.1,89.2z M202.4,30.1l31.2-17.3l13.4,20.6l-37.9,7.2L202.4,30.1z M205.8,30.6l3.9,7.2l33.1-5.8
				l-10.1-15.8L205.8,30.6z M214.2,98.9c-1.1-0.7-2.1-2.3-2.9-4.9c-0.8-2.6-1.2-5.4-1.2-8.5c0-5.7,1.4-10.1,4.1-13.2
				c1.2-1.3,2.7-2.4,4.7-3.2c2-0.8,4.1-1.2,6.4-1.2c3.9,0,7.7,1.2,11.2,3.7L214.2,98.9z M232.5,72.3c-1.9-1-3.9-1.5-5.9-1.5
				c-2.1,0-4.2,0.4-6.1,1.3c-2,0.9-3.4,1.9-4.2,3c-2.4,3.1-3.6,6.6-3.6,10.3c0,1.4,0.1,2.7,0.4,3.9c0.3,1.3,0.7,3,1.4,5.2
				L232.5,72.3z"/>
		</g>
		<g class="st0">
			<path class="st2" d="M147.9,99.9c2.8,1.5,5,3.5,6.8,6c1.7,2.5,3,5.4,3.8,8.5c0.8,3.1,1.2,6.4,1.2,9.8c0,2.8-0.2,5.5-0.7,8.1
				c-0.5,2.6-1.1,5-1.8,7.2c-0.8,2.2-1.7,4-2.8,5.6c-2.5,3.7-5.1,6.8-7.9,9.5c-2.8,2.7-5.7,4.8-8.6,6.4c-2.9,1.6-5.8,2.8-8.7,3.6
				s-5.7,1.1-8.5,1.1c-3.3,0-6.5-0.5-9.5-1.6s-5.5-2.4-7.6-4.1c-3.5-2.9-6.2-6.8-8.1-11.7c-2-4.9-2.9-10.1-2.9-15.6
				c0-9.4,2.7-17,8.1-22.8c4.6-5,9.5-8.7,14.4-11.2c5-2.5,10-3.8,15.2-3.8c3,0,6,0.4,8.8,1.1S144.8,98.2,147.9,99.9z M144.4,109.8
				c-0.7,3-2.1,5.6-4.3,7.9c-2.2,2.3-4.4,3.4-6.5,3.4c-1.1,0-2-0.3-2.8-0.8c-1.2-0.9-1.8-2.6-1.8-4.9c0-1.8,0.6-3.6,1.8-5.3
				c1.2-1.8,3.1-3.1,5.7-4.2c-2.6,0-5.1,0.5-7.5,1.5c-2.4,1-4.5,2.2-6.2,3.8c-1.7,1.5-3.1,3.3-4.1,5.2c-1,1.9-1.6,3.9-1.6,5.8
				c0,3.6,1.7,6.5,5,8.7c3.1,2,6.1,3,8.9,3c2.8,0,5.2-0.9,7.4-2.8c2.1-1.9,3.8-4.2,4.9-7.1c1.1-2.9,1.7-5.8,1.7-8.6
				C145.1,113.2,144.9,111.4,144.4,109.8z"/>
		</g>
		<g class="st0">
			<path class="st1" d="M147.9,99.9c2.8,1.5,5,3.5,6.8,6c1.7,2.5,3,5.4,3.8,8.5c0.8,3.1,1.2,6.4,1.2,9.8c0,2.8-0.2,5.5-0.7,8.1
				c-0.5,2.6-1.1,5-1.8,7.2c-0.8,2.2-1.7,4-2.8,5.6c-2.5,3.7-5.1,6.8-7.9,9.5c-2.8,2.7-5.7,4.8-8.6,6.4c-2.9,1.6-5.8,2.8-8.7,3.6
				s-5.7,1.1-8.5,1.1c-3.3,0-6.5-0.5-9.5-1.6s-5.5-2.4-7.6-4.1c-3.5-2.9-6.2-6.8-8.1-11.7c-2-4.9-2.9-10.1-2.9-15.6
				c0-9.4,2.7-17,8.1-22.8c4.6-5,9.5-8.7,14.4-11.2c5-2.5,10-3.8,15.2-3.8c3,0,6,0.4,8.8,1.1S144.8,98.2,147.9,99.9z M144.4,109.8
				c-0.7,3-2.1,5.6-4.3,7.9c-2.2,2.3-4.4,3.4-6.5,3.4c-1.1,0-2-0.3-2.8-0.8c-1.2-0.9-1.8-2.6-1.8-4.9c0-1.8,0.6-3.6,1.8-5.3
				c1.2-1.8,3.1-3.1,5.7-4.2c-2.6,0-5.1,0.5-7.5,1.5c-2.4,1-4.5,2.2-6.2,3.8c-1.7,1.5-3.1,3.3-4.1,5.2c-1,1.9-1.6,3.9-1.6,5.8
				c0,3.6,1.7,6.5,5,8.7c3.1,2,6.1,3,8.9,3c2.8,0,5.2-0.9,7.4-2.8c2.1-1.9,3.8-4.2,4.9-7.1c1.1-2.9,1.7-5.8,1.7-8.6
				C145.1,113.2,144.9,111.4,144.4,109.8z"/>
		</g>
		<g class="st0">
			<path class="st3" d="M147.9,99c2.8,1.5,5,3.5,6.8,6c1.7,2.5,3,5.4,3.8,8.5c0.8,3.1,1.2,6.4,1.2,9.8c0,2.8-0.2,5.5-0.7,8.1
				c-0.5,2.6-1.1,5-1.8,7.2c-0.8,2.2-1.7,4-2.8,5.6c-2.5,3.7-5.1,6.8-7.9,9.5c-2.8,2.7-5.7,4.8-8.6,6.4c-2.9,1.6-5.8,2.8-8.7,3.6
				s-5.7,1.1-8.5,1.1c-3.3,0-6.5-0.5-9.5-1.6s-5.5-2.4-7.6-4.1c-3.5-2.9-6.2-6.8-8.1-11.7c-2-4.9-2.9-10.1-2.9-15.6
				c0-9.4,2.7-17,8.1-22.8c4.6-5,9.5-8.7,14.4-11.2c5-2.5,10-3.8,15.2-3.8c3,0,6,0.4,8.8,1.1S144.8,97.3,147.9,99z M145.5,102
				c-3.3-3-7.6-4.5-12.8-4.5c-2.9,0-5.9,0.5-9.1,1.6c-3.2,1.1-6.4,2.7-9.7,4.9c-3.3,2.2-6.4,4.9-9.3,8.1c-1.9,2.1-3.5,4.3-4.6,6.6
				c-1.2,2.3-2.1,4.7-2.6,7.3c-0.6,2.5-0.9,5-0.9,7.6c0,5,1,9.6,2.9,13.8c1.9,4.2,4.6,7.5,7.9,9.8c3.4,2.4,7.7,3.6,12.7,3.6
				c5.7,0,11.4-1.7,17-5.1c5.6-3.4,10.2-8.3,13.7-14.7c3.2-5.7,4.8-11.5,4.8-17.4c0-4.2-0.8-8.2-2.5-11.8
				C151.1,108,148.7,104.7,145.5,102z M144.4,108.8c0.5,1.6,0.7,3.4,0.7,5.4c0,2.9-0.6,5.7-1.7,8.6c-1.1,2.9-2.8,5.3-4.9,7.1
				c-2.1,1.9-4.6,2.8-7.4,2.8c-2.8,0-5.8-1-8.9-3c-3.4-2.1-5-5-5-8.7c0-2,0.5-3.9,1.6-5.8c1-1.9,2.4-3.7,4.1-5.2
				c1.7-1.5,3.8-2.8,6.2-3.8c2.4-1,4.9-1.5,7.5-1.5c-2.6,1-4.5,2.4-5.7,4.2c-1.2,1.8-1.8,3.5-1.8,5.3c0,2.3,0.6,4,1.8,4.9
				c0.8,0.5,1.8,0.8,2.8,0.8c2.1,0,4.3-1.1,6.5-3.4C142.3,114.4,143.8,111.8,144.4,108.8z"/>
		</g>
		<g class="st0">
			<path class="st1" d="M147.9,99c2.8,1.5,5,3.5,6.8,6c1.7,2.5,3,5.4,3.8,8.5c0.8,3.1,1.2,6.4,1.2,9.8c0,2.8-0.2,5.5-0.7,8.1
				c-0.5,2.6-1.1,5-1.8,7.2c-0.8,2.2-1.7,4-2.8,5.6c-2.5,3.7-5.1,6.8-7.9,9.5c-2.8,2.7-5.7,4.8-8.6,6.4c-2.9,1.6-5.8,2.8-8.7,3.6
				s-5.7,1.1-8.5,1.1c-3.3,0-6.5-0.5-9.5-1.6s-5.5-2.4-7.6-4.1c-3.5-2.9-6.2-6.8-8.1-11.7c-2-4.9-2.9-10.1-2.9-15.6
				c0-9.4,2.7-17,8.1-22.8c4.6-5,9.5-8.7,14.4-11.2c5-2.5,10-3.8,15.2-3.8c3,0,6,0.4,8.8,1.1S144.8,97.3,147.9,99z M145.5,102
				c-3.3-3-7.6-4.5-12.8-4.5c-2.9,0-5.9,0.5-9.1,1.6c-3.2,1.1-6.4,2.7-9.7,4.9c-3.3,2.2-6.4,4.9-9.3,8.1c-1.9,2.1-3.5,4.3-4.6,6.6
				c-1.2,2.3-2.1,4.7-2.6,7.3c-0.6,2.5-0.9,5-0.9,7.6c0,5,1,9.6,2.9,13.8c1.9,4.2,4.6,7.5,7.9,9.8c3.4,2.4,7.7,3.6,12.7,3.6
				c5.7,0,11.4-1.7,17-5.1c5.6-3.4,10.2-8.3,13.7-14.7c3.2-5.7,4.8-11.5,4.8-17.4c0-4.2-0.8-8.2-2.5-11.8
				C151.1,108,148.7,104.7,145.5,102z M144.4,108.8c0.5,1.6,0.7,3.4,0.7,5.4c0,2.9-0.6,5.7-1.7,8.6c-1.1,2.9-2.8,5.3-4.9,7.1
				c-2.1,1.9-4.6,2.8-7.4,2.8c-2.8,0-5.8-1-8.9-3c-3.4-2.1-5-5-5-8.7c0-2,0.5-3.9,1.6-5.8c1-1.9,2.4-3.7,4.1-5.2
				c1.7-1.5,3.8-2.8,6.2-3.8c2.4-1,4.9-1.5,7.5-1.5c-2.6,1-4.5,2.4-5.7,4.2c-1.2,1.8-1.8,3.5-1.8,5.3c0,2.3,0.6,4,1.8,4.9
				c0.8,0.5,1.8,0.8,2.8,0.8c2.1,0,4.3-1.1,6.5-3.4C142.3,114.4,143.8,111.8,144.4,108.8z"/>
		</g>
		<g class="st0">
			<path class="st2" d="M421.7,99.9c2.8,1.5,5,3.5,6.8,6s3,5.4,3.8,8.5c0.8,3.1,1.2,6.4,1.2,9.8c0,2.8-0.2,5.5-0.7,8.1
				c-0.4,2.6-1.1,5-1.8,7.2c-0.8,2.2-1.7,4-2.8,5.6c-2.5,3.7-5.1,6.8-7.9,9.5c-2.8,2.7-5.7,4.8-8.6,6.4c-2.9,1.6-5.8,2.8-8.7,3.6
				s-5.7,1.1-8.5,1.1c-3.3,0-6.5-0.5-9.5-1.6s-5.5-2.4-7.6-4.1c-3.5-2.9-6.2-6.8-8.1-11.7c-2-4.9-2.9-10.1-2.9-15.6
				c0-9.4,2.7-17,8.1-22.8c4.6-5,9.5-8.7,14.4-11.2s10-3.8,15.2-3.8c3,0,6,0.4,8.8,1.1S418.7,98.2,421.7,99.9z M418.3,109.8
				c-0.7,3-2.1,5.6-4.3,7.9c-2.2,2.3-4.4,3.4-6.5,3.4c-1.1,0-2-0.3-2.8-0.8c-1.2-0.9-1.8-2.6-1.8-4.9c0-1.8,0.6-3.6,1.8-5.3
				s3.1-3.1,5.7-4.2c-2.6,0-5.1,0.5-7.5,1.5c-2.4,1-4.5,2.2-6.2,3.8c-1.7,1.5-3.1,3.3-4.1,5.2s-1.6,3.9-1.6,5.8c0,3.6,1.7,6.5,5,8.7
				c3.1,2,6.1,3,8.9,3c2.8,0,5.2-0.9,7.4-2.8c2.1-1.9,3.8-4.2,4.9-7.1c1.1-2.9,1.7-5.8,1.7-8.6C419,113.2,418.8,111.4,418.3,109.8z"
				/>
		</g>
		<g class="st0">
			<path class="st1" d="M421.7,99.9c2.8,1.5,5,3.5,6.8,6s3,5.4,3.8,8.5c0.8,3.1,1.2,6.4,1.2,9.8c0,2.8-0.2,5.5-0.7,8.1
				c-0.4,2.6-1.1,5-1.8,7.2c-0.8,2.2-1.7,4-2.8,5.6c-2.5,3.7-5.1,6.8-7.9,9.5c-2.8,2.7-5.7,4.8-8.6,6.4c-2.9,1.6-5.8,2.8-8.7,3.6
				s-5.7,1.1-8.5,1.1c-3.3,0-6.5-0.5-9.5-1.6s-5.5-2.4-7.6-4.1c-3.5-2.9-6.2-6.8-8.1-11.7c-2-4.9-2.9-10.1-2.9-15.6
				c0-9.4,2.7-17,8.1-22.8c4.6-5,9.5-8.7,14.4-11.2s10-3.8,15.2-3.8c3,0,6,0.4,8.8,1.1S418.7,98.2,421.7,99.9z M418.3,109.8
				c-0.7,3-2.1,5.6-4.3,7.9c-2.2,2.3-4.4,3.4-6.5,3.4c-1.1,0-2-0.3-2.8-0.8c-1.2-0.9-1.8-2.6-1.8-4.9c0-1.8,0.6-3.6,1.8-5.3
				s3.1-3.1,5.7-4.2c-2.6,0-5.1,0.5-7.5,1.5c-2.4,1-4.5,2.2-6.2,3.8c-1.7,1.5-3.1,3.3-4.1,5.2s-1.6,3.9-1.6,5.8c0,3.6,1.7,6.5,5,8.7
				c3.1,2,6.1,3,8.9,3c2.8,0,5.2-0.9,7.4-2.8c2.1-1.9,3.8-4.2,4.9-7.1c1.1-2.9,1.7-5.8,1.7-8.6C419,113.2,418.8,111.4,418.3,109.8z"
				/>
		</g>
		<g class="st0">
			<path class="st3" d="M421.7,99c2.8,1.5,5,3.5,6.8,6s3,5.4,3.8,8.5c0.8,3.1,1.2,6.4,1.2,9.8c0,2.8-0.2,5.5-0.7,8.1
				c-0.4,2.6-1.1,5-1.8,7.2c-0.8,2.2-1.7,4-2.8,5.6c-2.5,3.7-5.1,6.8-7.9,9.5c-2.8,2.7-5.7,4.8-8.6,6.4c-2.9,1.6-5.8,2.8-8.7,3.6
				s-5.7,1.1-8.5,1.1c-3.3,0-6.5-0.5-9.5-1.6s-5.5-2.4-7.6-4.1c-3.5-2.9-6.2-6.8-8.1-11.7c-2-4.9-2.9-10.1-2.9-15.6
				c0-9.4,2.7-17,8.1-22.8c4.6-5,9.5-8.7,14.4-11.2s10-3.8,15.2-3.8c3,0,6,0.4,8.8,1.1S418.7,97.3,421.7,99z M419.3,102
				c-3.3-3-7.6-4.5-12.8-4.5c-2.9,0-5.9,0.5-9.1,1.6c-3.2,1.1-6.4,2.7-9.7,4.9s-6.4,4.9-9.3,8.1c-1.9,2.1-3.5,4.3-4.6,6.6
				c-1.2,2.3-2.1,4.7-2.6,7.3c-0.6,2.5-0.9,5-0.9,7.6c0,5,1,9.6,2.9,13.8c1.9,4.2,4.6,7.5,7.9,9.8c3.4,2.4,7.7,3.6,12.7,3.6
				c5.7,0,11.4-1.7,17-5.1c5.6-3.4,10.2-8.3,13.7-14.7c3.2-5.7,4.8-11.5,4.8-17.4c0-4.2-0.8-8.2-2.5-11.8
				C425,108,422.5,104.7,419.3,102z M418.3,108.8c0.5,1.6,0.7,3.4,0.7,5.4c0,2.9-0.6,5.7-1.7,8.6c-1.1,2.9-2.8,5.3-4.9,7.1
				c-2.1,1.9-4.6,2.8-7.4,2.8c-2.8,0-5.8-1-8.9-3c-3.4-2.1-5-5-5-8.7c0-2,0.5-3.9,1.6-5.8s2.4-3.7,4.1-5.2c1.7-1.5,3.8-2.8,6.2-3.8
				c2.4-1,4.9-1.5,7.5-1.5c-2.6,1-4.5,2.4-5.7,4.2s-1.8,3.5-1.8,5.3c0,2.3,0.6,4,1.8,4.9c0.8,0.5,1.8,0.8,2.8,0.8
				c2.1,0,4.3-1.1,6.5-3.4C416.2,114.4,417.6,111.8,418.3,108.8z"/>
		</g>
		<g class="st0">
			<path class="st1" d="M421.7,99c2.8,1.5,5,3.5,6.8,6s3,5.4,3.8,8.5c0.8,3.1,1.2,6.4,1.2,9.8c0,2.8-0.2,5.5-0.7,8.1
				c-0.4,2.6-1.1,5-1.8,7.2c-0.8,2.2-1.7,4-2.8,5.6c-2.5,3.7-5.1,6.8-7.9,9.5c-2.8,2.7-5.7,4.8-8.6,6.4c-2.9,1.6-5.8,2.8-8.7,3.6
				s-5.7,1.1-8.5,1.1c-3.3,0-6.5-0.5-9.5-1.6s-5.5-2.4-7.6-4.1c-3.5-2.9-6.2-6.8-8.1-11.7c-2-4.9-2.9-10.1-2.9-15.6
				c0-9.4,2.7-17,8.1-22.8c4.6-5,9.5-8.7,14.4-11.2s10-3.8,15.2-3.8c3,0,6,0.4,8.8,1.1S418.7,97.3,421.7,99z M419.3,102
				c-3.3-3-7.6-4.5-12.8-4.5c-2.9,0-5.9,0.5-9.1,1.6c-3.2,1.1-6.4,2.7-9.7,4.9s-6.4,4.9-9.3,8.1c-1.9,2.1-3.5,4.3-4.6,6.6
				c-1.2,2.3-2.1,4.7-2.6,7.3c-0.6,2.5-0.9,5-0.9,7.6c0,5,1,9.6,2.9,13.8c1.9,4.2,4.6,7.5,7.9,9.8c3.4,2.4,7.7,3.6,12.7,3.6
				c5.7,0,11.4-1.7,17-5.1c5.6-3.4,10.2-8.3,13.7-14.7c3.2-5.7,4.8-11.5,4.8-17.4c0-4.2-0.8-8.2-2.5-11.8
				C425,108,422.5,104.7,419.3,102z M418.3,108.8c0.5,1.6,0.7,3.4,0.7,5.4c0,2.9-0.6,5.7-1.7,8.6c-1.1,2.9-2.8,5.3-4.9,7.1
				c-2.1,1.9-4.6,2.8-7.4,2.8c-2.8,0-5.8-1-8.9-3c-3.4-2.1-5-5-5-8.7c0-2,0.5-3.9,1.6-5.8s2.4-3.7,4.1-5.2c1.7-1.5,3.8-2.8,6.2-3.8
				c2.4-1,4.9-1.5,7.5-1.5c-2.6,1-4.5,2.4-5.7,4.2s-1.8,3.5-1.8,5.3c0,2.3,0.6,4,1.8,4.9c0.8,0.5,1.8,0.8,2.8,0.8
				c2.1,0,4.3-1.1,6.5-3.4C416.2,114.4,417.6,111.8,418.3,108.8z"/>
		</g>
		<g class="st0">
			<path class="st2" d="M490.2,74.8l25.9-2l6.7,49.2l27.7-32.6l20.7,18.6l-78.1,83.4L474.5,175l25.5-29.4L490.2,74.8z"/>
		</g>
		<g class="st0">
			<path class="st1" d="M490.2,74.8l25.9-2l6.7,49.2l27.7-32.6l20.7,18.6l-78.1,83.4L474.5,175l25.5-29.4L490.2,74.8z"/>
		</g>
		<g class="st0">
			<path class="st3" d="M490.2,73.8l25.9-2l6.7,49.2l27.7-32.6l20.7,18.6l-78.1,83.4l-18.6-16.2l25.5-29.4L490.2,73.8z M494.7,77.1
				l9.2,68.1l-25.1,28.5l14.6,11.6l73.3-79.1l-15.2-13.9l-31.8,36.8l-7.1-53.4L494.7,77.1z"/>
		</g>
		<g class="st0">
			<path class="st1" d="M490.2,73.8l25.9-2l6.7,49.2l27.7-32.6l20.7,18.6l-78.1,83.4l-18.6-16.2l25.5-29.4L490.2,73.8z M494.7,77.1
				l9.2,68.1l-25.1,28.5l14.6,11.6l73.3-79.1l-15.2-13.9l-31.8,36.8l-7.1-53.4L494.7,77.1z"/>
		</g>
	</g>
</g>
</svg>
